<?xml version="1.0" encoding="UTF-8" standalone="no"?>
<!-- Created with Inkscape (http://www.inkscape.org/) -->

<svg
   width="84.666672mm"
   height="44.855843mm"
   viewBox="0 0 84.666672 44.855843"
   version="1.1"
   id="svg5"
   xml:space="preserve"
   inkscape:version="1.2.2 (b0a8486541, 2022-12-01)"
   sodipodi:docname="ifood.svg"
   xmlns:inkscape="http://www.inkscape.org/namespaces/inkscape"
   xmlns:sodipodi="http://sodipodi.sourceforge.net/DTD/sodipodi-0.dtd"
   xmlns="http://www.w3.org/2000/svg"
   xmlns:svg="http://www.w3.org/2000/svg"><sodipodi:namedview
     id="namedview7"
     pagecolor="#505050"
     bordercolor="#eeeeee"
     borderopacity="1"
     inkscape:showpageshadow="0"
     inkscape:pageopacity="0"
     inkscape:pagecheckerboard="0"
     inkscape:deskcolor="#505050"
     inkscape:document-units="mm"
     showgrid="false"
     showguides="false"
     inkscape:zoom="2.4031249"
     inkscape:cx="160.00001"
     inkscape:cy="89.674908"
     inkscape:window-width="1280"
     inkscape:window-height="713"
     inkscape:window-x="0"
     inkscape:window-y="28"
     inkscape:window-maximized="1"
     inkscape:current-layer="layer1" /><defs
     id="defs2" /><g
     inkscape:label="Layer 1"
     inkscape:groupmode="layer"
     id="layer1"
     transform="translate(-95.23545,-32.653613)"><path
       style="fill:#000000;stroke-width:0.264583"
       id="path310"
       d="" /><path
       style="fill:#000000;stroke-width:0.264583"
       id="path308"
       d="" /><path
       style="fill:#000000;stroke-width:0.264583"
       id="path306"
       d="" /><path
       style="fill:#000000;stroke-width:0.264583"
       id="path304"
       d="" /><path
       style="fill:#000000;stroke-width:0.264583"
       id="path302"
       d="" /><path
       style="fill:#000000;stroke-width:0.264583"
       id="path336"
       d="" /><path
       style="fill:#000000;stroke-width:0.264583"
       id="path334"
       d="" /><path
       style="fill:#ffffff;stroke:none;stroke-width:0.264583;fill-opacity:1"
       d="m 100.26253,32.653613 -0.79375,5.291667 6.19424,-0.271939 1.2141,-5.019728 h -6.61459 m 5.55625,11.641667 h 2.11667 l -3.70417,19.050001 h 6.61459 l 3.70416,-19.050001 c 3.59876,0 5.04489,0.255588 5.55625,-3.704167 h -4.7625 c 1.30657,-4.602427 3.71639,-3.762745 7.67292,-3.439583 l 0.52917,-3.96875 c -4.51906,-0.608539 -9.00092,-1.169231 -12.38642,2.646865 -1.10286,1.243118 -1.4174,2.904173 -2.40982,4.148191 -0.53679,0.672861 -1.36689,0.409813 -1.98134,0.885004 -0.79711,0.61648 -0.82968,2.504546 -0.94951,3.43244 m 67.46876,-11.377084 -1.32292,7.408334 c -1.84177,-0.03802 -3.48589,-0.319987 -5.29167,0.292153 -5.12286,1.736593 -10.16767,8.387133 -9.47605,13.995347 0.87022,7.056438 8.66405,3.474615 11.8573,0.79375 l -0.79375,2.910417 h 6.61459 c 1.5949,-8.224282 4.66698,-17.036151 5.02708,-25.400001 h -6.61458 m -44.97917,7.257045 c -4.60852,0.661723 -8.69112,3.705754 -10.42043,8.088789 -2.41152,6.112166 1.21753,11.390578 8.03918,10.506763 4.73631,-0.613648 8.86354,-3.694139 10.72489,-8.125513 2.68684,-6.395905 -1.5248,-11.449077 -8.34364,-10.470039 m 20.10833,0.0029 c -4.74689,0.747209 -8.77702,4.078684 -10.39865,8.615098 -2.19393,6.13791 2.08015,10.947665 8.54657,9.938015 5.03343,-0.785839 9.15352,-4.325065 10.82119,-9.144265 2.16271,-6.249776 -2.94375,-10.357274 -8.96911,-9.408848 m -49.74167,0.413014 -3.43958,17.727084 h 6.61458 l 3.43959,-17.727084 h -6.61459 m 16.13959,22.754168 c 0.18584,2.275416 1.1812,4.44156 2.40514,6.35 5.3445,8.333581 15.97626,9.303808 24.58236,6.166115 2.52333,-0.919957 4.5167,-2.609586 6.87917,-3.784865 l 1.5875,5.027083 h 0.26458 l 2.64583,-13.758333 h -12.96458 v 0.264583 l 4.23333,2.910417 c -8.98234,8.24865 -22.68564,7.668154 -29.10417,-3.175 z"
       id="path356" /></g></svg>
